<svg xmlns="http://www.w3.org/2000/svg" xmlns:xlink="http://www.w3.org/1999/xlink" id="Layer_1" x="0px" y="0px" width="20px" height="20px" viewBox="0 0 20 20" xml:space="preserve"> <g> <path fill-rule="evenodd" clip-rule="evenodd" d="M13.713,0.965c0.129,0.032,0.258,0.064,0.387,0.096 c1.328,0.323,2.201,1.505,2.365,2.812c0.146,1.175-0.269,2.167-0.974,3.068c-0.669,0.853-1.494,1.546-2.307,2.25 c-0.681,0.589-1.37,1.167-2.055,1.751c-0.291,0.248-0.547,0.254-0.832,0.006C9.165,9.965,8.025,8.991,6.907,7.993 C6.229,7.387,5.649,6.695,5.257,5.86C4.565,4.389,4.968,2.579,6.222,1.588c0.399-0.316,0.859-0.501,1.36-0.585 c0.045-0.007,0.087-0.025,0.131-0.038c0.248,0,0.494,0,0.741,0c0.02,0.011,0.039,0.029,0.06,0.032 c0.817,0.121,1.449,0.547,1.951,1.186c0.082,0.103,0.161,0.208,0.249,0.321c0.047-0.065,0.079-0.112,0.113-0.16 c0.365-0.504,0.808-0.92,1.392-1.155c0.241-0.097,0.502-0.15,0.753-0.224C13.219,0.965,13.466,0.965,13.713,0.965z"></path> <path fill-rule="evenodd" clip-rule="evenodd" d="M8.313,19.036C7.998,19,7.681,18.978,7.369,18.926 c-0.543-0.09-1.083-0.197-1.631-0.298c0-0.096,0-0.16,0-0.224c0-2.047,0.001-4.094-0.003-6.14 c-0.001-0.137,0.043-0.208,0.156-0.279c1.335-0.837,3.067-0.746,4.284,0.247c0.382,0.313,0.801,0.468,1.294,0.453 c0.546-0.014,1.094-0.004,1.641-0.002c0.632,0.002,1.101,0.457,1.098,1.063c-0.002,0.596-0.471,1.051-1.092,1.053 c-1.041,0.002-2.082,0-3.123,0.001c-0.357,0.001-0.585,0.203-0.59,0.515c-0.006,0.314,0.208,0.535,0.542,0.543 c0.325,0.008,0.646,0.002,0.972,0.002c0.964,0,1.928-0.008,2.893,0.002c0.635,0.009,1.143-0.202,1.557-0.7 c0.728-0.878,1.489-1.729,2.235-2.592c0.502-0.581,1.327-0.554,1.73,0.065c0.078,0.119,0.114,0.267,0.171,0.4 c0,0.142,0,0.282,0,0.424c-0.13,0.271-0.223,0.568-0.397,0.808c-0.794,1.09-1.612,2.165-2.423,3.242 c-0.514,0.683-1.174,1.154-2.001,1.384c-0.202,0.056-0.409,0.096-0.613,0.144C12.147,19.036,10.229,19.036,8.313,19.036z"></path> <path fill-rule="evenodd" clip-rule="evenodd" d="M1.43,12.012c0.136-0.298,0.366-0.412,0.691-0.392 c0.31,0.02,0.622,0.003,0.934,0.005c0.927,0.006,1.616,0.681,1.621,1.609c0.008,1.398,0.007,2.797,0,4.194 c-0.004,0.8-0.516,1.411-1.293,1.578c-0.028,0.006-0.055,0.019-0.082,0.029c-0.494,0-0.988,0-1.482,0 c-0.178-0.082-0.307-0.213-0.389-0.39C1.43,16.436,1.43,14.224,1.43,12.012z"></path> </g> </svg>